<?xml version="1.0" encoding="utf-8"?>
<!-- Generator: Adobe Illustrator 24.3.0, SVG Export Plug-In . SVG Version: 6.00 Build 0)  -->
<svg version="1.1" id="Ebene_1" xmlns="http://www.w3.org/2000/svg" xmlns:xlink="http://www.w3.org/1999/xlink" x="0px" y="0px"
	 viewBox="0 0 116.2 116.2" style="enable-background:new 0 0 116.2 116.2;" xml:space="preserve">
<style type="text/css">
	.st0{fill:#FFFFFF;}
</style>
<rect x="0" y="-0.5" width="116.3" height="117.6"/>
<g>
	<g>
		<polygon class="st0" points="26.8,57.6 26.8,55.6 21.8,51.4 27.3,44.7 25.2,45.1 18.7,52.9 18.7,46.1 17.2,46.3 17.2,61.1 
			18.7,60.9 18.7,55.1 20.9,52.5 26.6,57.4 		"/>
		<path class="st0" d="M31,45.6l1.7-0.3c1.5-0.3,2-0.2,2.6,0.1c0.7,0.4,1.1,1.1,1.1,2.1c0,1.1-0.6,2.3-1.5,2.9
			c-0.5,0.3-1.1,0.5-1.8,0.7l-0.1,0l0,1.9l5.6,4.8v-2l-4.3-3.6c2.2-0.6,3.7-2.6,3.7-4.9c0-1.1-0.4-2.1-1-2.7
			c-0.6-0.6-1.5-0.9-2.4-0.9c-0.3,0-0.8,0.1-1.7,0.2l-3.2,0.5v14.8L31,59V45.6z"/>
		<polygon class="st0" points="47.1,56.4 47.8,54.7 42.2,55.6 42.2,50.3 49.9,49.1 50.6,47.5 42.1,48.8 42.1,43.9 52.8,42.2 
			53.4,40.6 40.6,42.6 40.6,57.4 		"/>
		<polygon class="st0" points="51.8,55.7 56.9,43.2 62,54 63.6,53.8 56.8,39.5 50.1,55.9 		"/>
		<polygon class="st0" points="66.3,40.1 66.3,53.4 67.8,53.1 67.8,39.8 73.4,39 73.4,37.4 60,39.6 60.6,41 		"/>
		<polygon class="st0" points="77.2,36.8 75.7,37.1 75.7,51.9 77.2,51.6 		"/>
		<polygon class="st0" points="39.9,73.9 40,62.6 38.4,62.8 38.4,69.4 31,70.6 31,64 29.4,64.3 29.4,79 31,78.8 31,72.1 38.4,70.9 
			38.4,77.6 		"/>
		<polygon class="st0" points="66.3,69.8 56.7,59.4 56.7,71.3 58.2,74.5 58.2,63.2 67.8,73.6 67.8,58.2 66.3,58.4 		"/>
		<path class="st0" d="M75.4,63.7l-0.7,1.6l8.8-1.5c-0.2,1.5-0.9,2.9-1.9,4c-1,1.1-2.3,1.9-3.7,2.1c-1.5,0.2-2.8-0.1-3.9-1
			c-1.1-0.9-1.7-2.4-1.7-4c0-1.6,0.6-3.3,1.7-4.6c1.1-1.3,2.5-2.2,4-2.5c1.3-0.2,2.6,0.1,3.6,0.8c0.3,0.2,0.4,0.3,0.7,0.7
			c0,0,0.2,0.1,0.3,0.3c0.1,0.1,0.2,0.2,0.2,0.2l0.7-1.6l-0.1-0.1c-1.7-1.6-3.3-2.1-5.4-1.8c-2,0.3-3.8,1.4-5.1,3.1
			c-1.4,1.7-2.1,3.7-2.1,5.8c0,2.1,0.8,3.9,2.2,5.1c1.1,0.9,2.4,1.4,3.8,1.4c0.4,0,0.8,0,1.2-0.1c2-0.3,3.9-1.5,5.2-3.2
			c1.3-1.7,2-3.9,2-6.1V62L75.4,63.7z"/>
		<path class="st0" d="M41.9,81.1l6.7-16.6l5.1,10.7l1.6-0.3l-6.7-14.1l-8.4,20.5l-12.8,2.2l-0.2,0L37.3,92l0.1,0.1l3.8-9.4
			l16.4-2.8L57,78.5L41.9,81.1z M30.4,84.5l9.1-1.6l-2.8,6.8L30.4,84.5z"/>
		<path class="st0" d="M93.3,33.7l3.8-9.3l0.1-0.3l0,0l0,0l-12.8,2.2l-1.8,0.3l9.1,7.5l-5.3,13l-5.1-11l-1.6,0.3l6.7,14.3l6.4-15.6
			l5.6,4.6l0.1,0.1l0.6-1.4L93.3,33.7z M95,26l-2.8,6.9l-6.4-5.3L95,26z"/>
	</g>
</g>
</svg>
